<svg xmlns="http://www.w3.org/2000/svg" width="566.93" height="170.079" viewBox="0 0 566.93 170.079"><path fill="#000" d="M131.617 22.582h21.036v104.996h-21.036zm52.497 0h-21.04v104.996h62.983v-21.04h-41.943m172.25 20.78h22.67l6.836-15.114.257-.783h35.76l.327.72 6.772 15.18h22.732l-47.74-106.69-47.615 106.69zM413.29 92.86h-18.56l9.314-21.82 9.25 21.82zm135.49-28.2h-51.976v21.17h30.027c-2.21 6.188-6.06 11.267-11.46 15.237-5.4 3.978-11.59 5.93-18.49 5.93-8.8 0-16.29-3.123-22.48-9.313-6.18-6.187-9.31-13.678-9.31-22.47 0-8.728 3.13-16.22 9.31-22.472 6.19-6.25 13.68-9.378 22.48-9.378 8.66 0 16.15 3.126 22.46 9.378l14.99-14.98c-4.88-4.755-10.55-8.533-16.99-11.332-6.45-2.8-13.28-4.17-20.58-4.17l-.06-.194c-14.59 0-27.09 5.21-37.45 15.634-10.35 10.42-15.56 22.925-15.56 37.515s5.22 27.094 15.57 37.452c10.36 10.356 22.86 15.566 37.45 15.566 14.59 0 27.09-5.21 37.52-15.565 10.42-10.358 15.63-22.862 15.63-37.452 0-3.715-.33-7.233-1.04-10.552zM17.11 17.366V127.14h21.595V82.684L69.66 125.4l30.952-42.717v44.458h21.594V17.37L69.66 89.432M267.248 73.18c.504 1.18 1.026 2.357 1.563 3.524-1.85-4.114-3.54-8.342-5.04-12.68 1.07 3.116 2.24 6.243 3.49 9.157zm45.322 25.242l10.447-14.418v24.32c3.166 2.628 6.535 5.16 10.122 7.542l.18.126c.32.214.66.44.97.693 1.33 1.088 1.5 2.063.59 3.476-.91 1.41-1.85 2.8-2.79 4.19l-1.09 1.62c-.06.09-.12.17-.19.25-.08.1-.18.21-.2.28-.09.39-.23.73-.35 1.09h13.9V19.99l-44.84 61.504c3.85 5.994 8.28 11.636 13.23 16.933zm-73.572-27.097c-1.407-3.974-2.624-7.836-3.714-11.653v67.905h21.166v-21.843c-.465-.71-.964-1.395-1.42-2.11-6.972-10.956-12.217-21.52-16.032-32.3z"/><path fill="#000" d="M331.055 118.593c-.288-.227-.6-.438-.907-.64l-.183-.13c-3.416-2.262-6.632-4.667-9.666-7.16-1.94-1.584-3.81-3.196-5.56-4.852-.82-.76-1.61-1.54-2.4-2.32 2.52 2.6 5.17 5.11 7.95 7.55 2.63 2.31 5.37 4.55 8.23 6.71l1.79 1.36-2.16-.63c-1.31-.38-4.3-2.61-7.87-5.67-3.74-3.2-8.09-7.31-11.82-11.21-1.73-1.8-3.32-3.55-4.65-5.14-3.12-3.73-5.99-7.66-8.63-11.75-3.3-5.09-6.23-10.43-8.74-16-4.7-10.39-10.35-29.18-9.03-31.66l.56-1.03.21 1.16c.12.65.25 1.29.37 1.92-.06-.35-.13-.7-.19-1.06-.12-.66-.29-1.56.82-2.02.06-.11.13-.39.09-.51l-.09-.4c-.27-1.08-.54-2.2-.99-3.19-.81-1.83-.41-3.65 1.03-4.64.07-.05.16-.22.16-.31 0-.94-.07-1.84-.86-2.46-.31-.24-.57-.62-.7-1.02-.39-1.22-.58-1.36-1.85-1.37-.93-.01-1.86-.02-2.79-.04-.9-.01-1.8-.03-2.7-.04-.69 0-1.39-.09-1.75-1.14-.08-.23-.69-.62-1.1-.65-.94-.05-1.93-.08-3.03-.08-.92 0-1.84.02-2.76.05-2.28.06-4.06-.66-5.43-2.22-.26-.28-.82-.52-1.27-.53-1.37-.03-2.75-.04-4.13-.04l-3.92.01v.23h-8.54c-.76 0-1.24.13-1.46.39-.24.27-.28.77-.16 1.58l.06.32c.16.88.36 1.97-.86 2.75 0 .03-.02.3-.03.45-.01.12-.02.24-.04.34-.03.21-.05.41-.07.62-.02.25-.04.5-.09.75-.16 1.01-.35 2.01-.52 3.02-.39 2.14-.78 4.35-1.02 6.53l-.06.46c-.24 2.26-.43 2.43-2.9 2.61h-.09l-.2.14c-.12.08-.32.21-.35.28-.01.19.16.58.3.67.24.16.55.26.86.36.29.1.595.2.89.35.782.42 1.18.81 1.24 1.24.14 1.08.512 2.14.87 3.17.303.89.622 1.8.81 2.75.73 3.8 1.62 7.61 2.65 11.47 1.262 4.72 2.74 9.51 4.493 14.47 3.795 10.714 9.015 21.225 15.95 32.13.23.36.49.71.723 1.07 11.806 18.23 27.25 33.88 45.96 46.48.67.458 1.096.498 1.69.19.25-.126.58-.2.89-.2.24 0 .445.045.62.13.74.364 1.23.6 1.52.6.29 0 .56-.31 1.25-1.19.215-.26.4-.53.59-.81.94-1.37 1.89-2.74 2.83-4.11 2.35-3.41 4.78-6.93 7.09-10.442.5-.753 1.05-1.49 1.575-2.21 1.224-1.644 2.36-3.24 3.045-5.096.154-.416.31-.83.41-1.275.06-.26.223-.45.36-.62.056-.06.1-.12.14-.186l1.1-1.62c.93-1.386 1.87-2.77 2.78-4.17.68-1.05.595-1.56-.414-2.384zm-61.283-81.375c3.434 19.69 10.532 37.535 21.14 53.36 3.956 5.902 8.403 11.52 13.334 16.844 1.983 2.14 4.022 4.25 6.162 6.294l-.567.6c-2.15-1.953-4.2-3.982-6.2-6.05-5-5.187-9.51-10.725-13.51-16.603-10.71-15.733-17.82-33.893-21.17-54.305l.82-.14zm37.968 76.41l-.88.855-.287-.354c-.435-.54-.875-1.09-1.306-1.63l-.226-.29.74-.8 1.97 2.2zm-5.894-4.508c-2.232-1.883-4.033-4.176-5.774-6.388-.703-.9-1.433-1.828-2.176-2.708l-.264-.31.982-.86 8.375 9.69-.86.814-.29-.238zm-35.66-88.25c.874 14.718 3.506 28.033 8.032 40.706 3.385 9.478 8.152 18.88 14.438 28.523 1.71 2.62 3.508 5.25 5.446 7.92l.27.37-1.227.69-.222-.28c-5.135-6.58-9.64-13.73-13.47-21.34-1.47-2.92-2.846-5.89-4.108-8.93-6.374-15.35-9.737-31.38-9.99-47.65l.83-.03zm-1.11 81.124c-1.924-2.896-3.74-5.866-5.455-8.9-4.87-8.624-8.9-17.786-12.01-27.36-3.08-9.502-6.19-22.63-5.4-24.69l.53-1.383.27 1.46c2.2 11.83 4.97 22.08 8.49 31.33 2.3 6.07 5.03 12.14 8.15 18.15 1.91 3.68 3.96 7.34 6.15 10.95l-.7.45zm9.423 13.464l-2.44-3.107.9-.71 2.44 3.2-.91.63zm24.1 13.137l-5.71-5.498-1.96-1.88.72-.74-1.84-1.13c-3.71-2.282-18.53-21.194-25.66-36.033-5.51-11.488-14.58-38.868-12.86-42.23l.56-1.09.22 1.204c5.34 29.458 18.21 55.54 38.25 77.516l1.46 1.606.01-.02 1.81 1.767 5.81 5.658-.85.87zm7.78-1.708c-3.43-2.743-6.71-5.69-9.86-8.808-4.78-4.74-9.23-9.89-13.29-15.41-6.79-9.24-12.43-19.05-16.76-29.17-3.41-7.99-6.42-17.84-7.94-24.7-.93-4.18-1.3-7.26-.87-8.12l.54-1.11.22 1.21c.74 3.9 1.62 7.71 2.61 11.46 6.59 25 18.72 46.72 36.19 64.81 3.06 3.17 6.27 6.23 9.66 9.18l-.54.63zm3.89-4.276l-.28-.24c-3.46-2.96-6.75-6.05-9.87-9.27-9.64-9.93-17.62-21.06-23.8-33.23-2.05-4.02-4.41-9.75-6.53-15.61-3.79-10.44-6.83-21.28-5.96-23.48l.38-.94.39.94c.07.18.14.32.2.46.14.29.26.54.31.82 1.7 9.09 4.28 17.92 7.74 26.42 4.41 10.87 10.23 21.23 17.43 30.98 3.32 4.5 6.87 8.7 10.6 12.57 3.02 3.14 6.15 6.08 9.4 8.77.18.15.32.32.46.48.05.07.11.13.16.2l.27.3-.94.85zm-250.23 9.16v15.39h3.05v-6.23l4.38 5.99 4.37-5.99v6.24h3.06v-15.39l-7.43 10.11m9.41-9.82h3.05v15.11h-3.05zm8.1 0h-3.05v15.11h9.14v-3.02h-6.09m7.69-12.08h3.05v15.1h-3.05zm15.53 0H97.53v3.02h3.81v12.09h3.054V135.1h3.81m-1.33 12.05h3.28l1-2.176.036-.11h5.19l.05.1.983 2.188h3.3l-6.93-15.35-6.91 15.35zm8.26-4.96h-2.7l1.36-3.14 1.34 3.14zm16.61-1.8c.642-.9.963-1.724.963-2.85v-.47c0-1.45-.425-2.425-1.475-3.463-1.05-1.04-2.5-1.55-3.96-1.55h-4.958l.01 15.13h3.053v-5.903l3.895 5.9H133l-3.442-5.26c1.004-.37 1.54-.634 2.185-1.534zm-2.79-1.65c-.445.44-.766.6-1.4.6l-2.185-.01v-4.254h1.71c.63 0 1.43.16 1.87.61.45.45.61.86.61 1.483s-.16 1.13-.61 1.57zm11.646-1.874l-2.625-4.785h-3.46l4.566 8.33v6.78h3.05v-6.77l4.58-8.33h-3.47m11.22-.28v15.39h3.06v-6.23l4.38 5.99 4.38-5.99v6.24h3.06v-15.4l-7.43 10.1m9.03 5.25h3.29l1-2.17.04-.11h5.19l.05.1.99 2.19h3.29l-6.93-15.35-6.91 15.35zm8.27-4.96h-2.7l1.36-3.14 1.34 3.14zm20.81-4.06h-7.55v3.05h4.36c-.32.89-.88 1.62-1.67 2.2-.78.57-1.68.85-2.68.85-1.28 0-2.37-.45-3.26-1.34-.9-.89-1.36-1.97-1.36-3.23s.45-2.33 1.35-3.23c.9-.9 1.99-1.35 3.26-1.35 1.26 0 2.35.45 3.27 1.35l2.18-2.15c-.71-.68-1.53-1.23-2.46-1.63-.94-.4-1.93-.6-2.99-.6l-.01-.02c-2.12 0-3.93.75-5.435 2.25s-2.26 3.3-2.26 5.4c0 2.1.755 3.9 2.26 5.39 1.5 1.49 3.32 2.24 5.44 2.24 2.11 0 3.93-.75 5.44-2.23 1.51-1.49 2.27-3.29 2.27-5.39 0-.54-.05-1.044-.15-1.52zm-.06 9.02h3.29l.99-2.17.04-.11h5.19l.04.1.99 2.19h3.3l-6.93-15.35-6.91 15.35zm8.26-4.95h-2.7l1.35-3.14 1.34 3.14zm7-10.11v3.01h5.83l-5.83 12.09h10.67v-3.03h-5.83l5.84-12.07m1.8 0h3.06v15.1h-3.06zm14.19 8.35l-9.14-8.63v15.39h3.06v-8.36l9.14 8.64V132.1h-3.05m5.04 15.103h9.14v-3.03h-6.09v-3.02h4.57v-3.02h-4.57v-3.03h6.09v-3.015h-9.14m-225.4-.175h-3.85v3.05h3.85v12.21h3.08v-12.21h3.85v-3.06H24.6m14.5 6.1h-4.61v-6.113H31.4v15.27h3.087v-6.11H39.1v6.11h3.086v-15.27H39.1m6.248 15.27h9.238v-3.06h-6.154v-3.05h4.616V138h-4.616v-3.06h6.154v-3.053h-9.238"/></svg>