# Blender v2.90.0 OBJ File: ''
# www.blender.org
mtllib pathSolar.mtl
o Straigh_Plane.005
v -0.375000 -0.000000 1.000000
v 0.375000 -0.000000 1.000000
v 0.375000 0.000000 -1.000000
v -0.375000 0.000000 -1.000000
v -0.375000 -0.100000 1.000000
v -0.375000 -0.100000 -1.000000
v 0.375000 -0.100000 -1.000000
v 0.375000 -0.100000 1.000000
vt 0.000000 0.000000
vt 0.000000 1.000000
vt 0.000000 1.000000
vt 0.000000 0.000000
vt 1.000000 0.000000
vt 1.000000 0.000000
vt 1.000000 1.000000
vt 1.000000 1.000000
vn -1.0000 0.0000 0.0000
vn 0.0000 0.0000 1.0000
vn 1.0000 0.0000 0.0000
vn 0.0000 0.0000 -1.0000
vn 0.0000 1.0000 0.0000
vn 0.0000 -1.0000 -0.0000
usemtl None
s off
f 1/1/1 4/2/1 6/3/1 5/4/1
f 2/5/2 1/1/2 5/4/2 8/6/2
f 3/7/3 2/5/3 8/6/3 7/8/3
f 4/2/4 3/7/4 7/8/4 6/3/4
s 1
f 1/1/5 2/5/5 3/7/5 4/2/5
f 5/4/6 6/3/6 7/8/6 8/6/6
o Flag_Cylinder
v 0.003402 -0.030775 -0.129472
v 0.003402 0.020880 -0.129472
v 0.052821 0.020880 -0.119641
v 0.052821 -0.030775 -0.119641
v 0.094717 0.020880 -0.091648
v 0.094717 -0.030775 -0.091648
v 0.122711 0.020880 -0.049752
v 0.122711 -0.030775 -0.049752
v 0.132541 0.020880 -0.000333
v 0.132541 -0.030775 -0.000333
v 0.122711 0.020880 0.049086
v 0.122711 -0.030775 0.049086
v 0.094717 0.020880 0.090982
v 0.094717 -0.030775 0.090982
v 0.052821 0.020880 0.118976
v 0.052821 -0.030775 0.118976
v 0.003402 0.020880 0.128806
v 0.003402 -0.030775 0.128806
v -0.046017 0.020880 0.118976
v -0.046017 -0.030775 0.118976
v -0.087913 0.020880 0.090982
v -0.087913 -0.030775 0.090982
v -0.115907 0.020880 0.049086
v -0.115907 -0.030775 0.049086
v -0.125737 0.020880 -0.000333
v -0.125737 -0.030775 -0.000333
v -0.115906 0.020880 -0.049752
v -0.115906 -0.030775 -0.049752
v -0.087913 0.020880 -0.091648
v -0.087913 -0.030775 -0.091648
v -0.046017 0.020880 -0.119641
v -0.046017 -0.030775 -0.119641
v 0.029230 0.777158 -0.000333
v 0.347197 0.909362 -0.000333
v 0.347197 0.918866 -0.000333
v 0.029230 1.051070 -0.000333
v 0.029230 0.777158 -0.000333
v 0.347197 0.909362 -0.000333
v 0.029230 1.051070 -0.000333
v 0.347197 0.918866 -0.000333
vt 0.341844 0.471731
vt 0.250000 0.490000
vt 0.158156 0.471731
vt 0.080294 0.419706
vt 0.028269 0.341844
vt 0.010000 0.250000
vt 0.028269 0.158156
vt 0.080294 0.080294
vt 0.158156 0.028269
vt 0.250000 0.010000
vt 0.341844 0.028269
vt 0.419706 0.080294
vt 0.471731 0.158156
vt 0.490000 0.250000
vt 0.471731 0.341844
vt 0.419706 0.419706
vt 0.750000 0.490000
vt 0.841844 0.471731
vt 0.919706 0.419706
vt 0.971731 0.341844
vt 0.990000 0.250000
vt 0.971731 0.158156
vt 0.919706 0.080294
vt 0.841844 0.028269
vt 0.750000 0.010000
vt 0.658156 0.028269
vt 0.580294 0.080294
vt 0.528269 0.158156
vt 0.510000 0.250000
vt 0.528269 0.341844
vt 0.580294 0.419706
vt 0.658156 0.471731
vt 1.000000 0.500000
vt 1.000000 1.000000
vt 0.937500 1.000000
vt 0.937500 0.500000
vt 0.875000 1.000000
vt 0.875000 0.500000
vt 0.812500 1.000000
vt 0.812500 0.500000
vt 0.750000 1.000000
vt 0.750000 0.500000
vt 0.687500 1.000000
vt 0.687500 0.500000
vt 0.625000 1.000000
vt 0.625000 0.500000
vt 0.562500 1.000000
vt 0.562500 0.500000
vt 0.500000 1.000000
vt 0.500000 0.500000
vt 0.437500 1.000000
vt 0.437500 0.500000
vt 0.375000 1.000000
vt 0.375000 0.500000
vt 0.312500 1.000000
vt 0.312500 0.500000
vt 0.250000 1.000000
vt 0.250000 0.500000
vt 0.187500 1.000000
vt 0.187500 0.500000
vt 0.125000 1.000000
vt 0.125000 0.500000
vt 0.062500 1.000000
vt 0.062500 0.500000
vt 0.000000 1.000000
vt 0.000000 0.500000
vt 0.000000 0.000000
vt 0.000000 0.000000
vt 0.000000 0.000000
vt 0.000000 0.000000
vt 0.000000 0.000000
vt 0.000000 0.000000
vt 0.000000 0.000000
vt 0.000000 0.000000
vn -0.0000 1.0000 0.0000
vn 0.0000 -1.0000 -0.0000
vn -0.0000 0.0000 -1.0000
vn 0.3827 0.0000 -0.9239
vn 0.7071 0.0000 -0.7071
vn 0.9239 0.0000 -0.3827
vn 1.0000 0.0000 0.0000
vn 0.9239 -0.0000 0.3827
vn 0.7071 -0.0000 0.7071
vn 0.3827 -0.0000 0.9239
vn -0.0000 -0.0000 1.0000
vn -0.3827 -0.0000 0.9239
vn -0.7071 -0.0000 0.7071
vn -0.9239 -0.0000 0.3827
vn -1.0000 -0.0000 -0.0000
vn -0.9239 0.0000 -0.3827
vn -0.7071 0.0000 -0.7071
vn -0.3827 0.0000 -0.9239
usemtl None
s off
f 11/9/7 10/10/7 39/11/7 37/12/7 35/13/7 33/14/7 31/15/7 29/16/7 27/17/7 25/18/7 23/19/7 21/20/7 19/21/7 17/22/7 15/23/7 13/24/7
f 9/25/8 12/26/8 14/27/8 16/28/8 18/29/8 20/30/8 22/31/8 24/32/8 26/33/8 28/34/8 30/35/8 32/36/8 34/37/8 36/38/8 38/39/8 40/40/8
s 1
f 9/41/9 10/42/9 11/43/10 12/44/10
f 12/44/10 11/43/10 13/45/11 14/46/11
f 14/46/11 13/45/11 15/47/12 16/48/12
f 16/48/12 15/47/12 17/49/13 18/50/13
f 18/50/13 17/49/13 19/51/14 20/52/14
f 20/52/14 19/51/14 21/53/15 22/54/15
f 22/54/15 21/53/15 23/55/16 24/56/16
f 24/56/16 23/55/16 25/57/17 26/58/17
f 26/58/17 25/57/17 27/59/18 28/60/18
f 28/60/18 27/59/18 29/61/19 30/62/19
f 30/62/19 29/61/19 31/63/20 32/64/20
f 32/64/20 31/63/20 33/65/21 34/66/21
f 34/66/21 33/65/21 35/67/22 36/68/22
f 36/68/22 35/67/22 37/69/23 38/70/23
f 38/70/23 37/69/23 39/71/24 40/72/24
f 40/72/24 39/71/24 10/73/9 9/74/9
f 41/75/17 42/76/17 43/77/17 44/78/17
f 42/76/17 41/75/17 45/79/17 46/80/17
f 41/75/17 44/78/17 47/81/17 45/79/17
f 44/78/17 43/77/17 48/82/17 47/81/17
f 43/77/17 42/76/17 46/80/17 48/82/17
o Triangle_Cylinder.001
v 0.029230 0.777158 -0.000333
v 0.029230 1.051070 -0.000333
v 0.347197 0.918866 -0.000333
v 0.347197 0.909362 -0.000333
vt 0.000000 0.000000
vt 0.000000 0.000000
vt 0.000000 0.000000
vt 0.000000 0.000000
vn 0.0000 0.0000 -1.0000
usemtl None
s 1
f 49/83/25 50/84/25 51/85/25 52/86/25
o Cylinder_Cylinder.002
v 0.013286 0.020880 -0.024195
v 0.021665 0.020880 -0.018596
v 0.027264 0.020880 -0.010217
v 0.029230 0.020880 -0.000333
v 0.027264 0.020880 0.009551
v 0.021665 0.020880 0.017930
v 0.013286 0.020880 0.023529
v 0.003402 0.020880 0.025495
v -0.006482 0.020880 0.023529
v -0.014861 0.020880 0.017930
v -0.020460 0.020880 0.009551
v -0.022426 0.020880 -0.000333
v -0.020460 0.020880 -0.010217
v -0.014861 0.020880 -0.018596
v -0.006482 0.020880 -0.024195
v 0.003402 0.020880 -0.026161
v 0.029230 0.537435 -0.000333
v 0.027264 0.537435 -0.010217
v 0.027264 1.053990 -0.010217
v 0.029230 1.053990 -0.000333
v -0.022426 0.537435 -0.000333
v -0.020460 0.537435 -0.010217
v 0.027264 0.537435 0.009551
v 0.021665 0.537435 0.017930
v -0.014861 0.537435 -0.018596
v 0.013286 0.537435 0.023529
v -0.006482 0.537435 -0.024195
v 0.003402 0.537435 0.025495
v 0.003402 0.537435 -0.026161
v 0.013286 0.537435 -0.024195
v -0.006482 0.537435 0.023529
v 0.021665 0.537435 -0.018596
v -0.014861 0.537435 0.017930
v -0.020460 0.537435 0.009551
v 0.013286 1.053990 -0.024195
v 0.003402 1.053990 -0.026161
v -0.006482 1.053990 -0.024195
v -0.014861 1.053990 -0.018596
v -0.020460 1.053990 -0.010217
v -0.022426 1.053990 -0.000333
v -0.020460 1.053990 0.009551
v -0.014861 1.053990 0.017930
v -0.006482 1.053990 0.023529
v 0.003402 1.053990 0.025495
v 0.013286 1.053990 0.023529
v 0.021665 1.053990 0.017930
v 0.027264 1.053990 0.009551
v 0.021665 1.053990 -0.018596
vt 0.341844 0.471731
vt 0.419706 0.419706
vt 0.471731 0.341844
vt 0.490000 0.250000
vt 0.471731 0.158156
vt 0.419706 0.080294
vt 0.341844 0.028269
vt 0.250000 0.010000
vt 0.158156 0.028269
vt 0.080294 0.080294
vt 0.028269 0.158156
vt 0.010000 0.250000
vt 0.028269 0.341844
vt 0.080294 0.419706
vt 0.158156 0.471731
vt 0.250000 0.490000
vt 0.341844 0.471731
vt 0.250000 0.490000
vt 0.158156 0.471731
vt 0.080294 0.419706
vt 0.028269 0.341844
vt 0.010000 0.250000
vt 0.028269 0.158156
vt 0.080294 0.080294
vt 0.158156 0.028269
vt 0.250000 0.010000
vt 0.341844 0.028269
vt 0.419706 0.080294
vt 0.471731 0.158156
vt 0.490000 0.250000
vt 0.471731 0.341844
vt 0.419706 0.419706
vt 0.490000 0.250000
vt 0.471731 0.341844
vt 0.010000 0.250000
vt 0.028269 0.341844
vt 0.471731 0.158156
vt 0.419706 0.080294
vt 0.080294 0.419706
vt 0.341844 0.028269
vt 0.158156 0.471731
vt 0.250000 0.010000
vt 0.250000 0.490000
vt 0.341844 0.471731
vt 0.158156 0.028269
vt 0.419706 0.419706
vt 0.080294 0.080294
vt 0.028269 0.158156
vn 0.0000 -1.0000 -0.0000
vn 0.0000 1.0000 -0.0000
vn 1.0000 0.0000 0.0000
vn 0.9239 0.0000 -0.3827
vn -0.9239 0.0000 -0.3827
vn -1.0000 -0.0000 0.0000
vn 0.7071 -0.0000 0.7071
vn 0.9239 -0.0000 0.3827
vn -0.7071 0.0000 -0.7071
vn 0.3827 -0.0000 0.9239
vn -0.3827 0.0000 -0.9239
vn 0.0000 -0.0000 1.0000
vn 0.3827 0.0000 -0.9239
vn 0.0000 0.0000 -1.0000
vn -0.3827 -0.0000 0.9239
vn 0.7071 0.0000 -0.7071
vn -0.7071 -0.0000 0.7071
vn -0.9239 -0.0000 0.3827
usemtl None
s off
f 53/87/26 54/88/26 55/89/26 56/90/26 57/91/26 58/92/26 59/93/26 60/94/26 61/95/26 62/96/26 63/97/26 64/98/26 65/99/26 66/100/26 67/101/26 68/102/26
f 87/103/27 88/104/27 89/105/27 90/106/27 91/107/27 92/108/27 93/109/27 94/110/27 95/111/27 96/112/27 97/113/27 98/114/27 99/115/27 72/116/27 71/117/27 100/118/27
s 1
f 69/119/28 70/120/29 71/117/29 72/116/28
f 65/99/30 64/98/31 73/121/31 74/122/30
f 58/92/32 57/91/33 75/123/33 76/124/32
f 66/100/34 65/99/30 74/122/30 77/125/34
f 59/93/35 58/92/32 76/124/32 78/126/35
f 67/101/36 66/100/34 77/125/34 79/127/36
f 60/94/37 59/93/35 78/126/35 80/128/37
f 53/87/38 68/102/39 81/129/39 82/130/38
f 68/102/39 67/101/36 79/127/36 81/129/39
f 61/95/40 60/94/37 80/128/37 83/131/40
f 54/88/41 53/87/38 82/130/38 84/132/41
f 62/96/42 61/95/40 83/131/40 85/133/42
f 55/89/29 54/88/41 84/132/41 70/120/29
f 63/97/43 62/96/42 85/133/42 86/134/43
f 56/90/28 55/89/29 70/120/29 69/119/28
f 64/98/31 63/97/43 86/134/43 73/121/31
f 57/91/33 56/90/28 69/119/28 75/123/33
f 73/121/31 86/134/43 93/109/43 92/108/31
f 75/123/33 69/119/28 72/116/28 99/115/33
f 74/122/30 73/121/31 92/108/31 91/107/30
f 76/124/32 75/123/33 99/115/33 98/114/32
f 77/125/34 74/122/30 91/107/30 90/106/34
f 78/126/35 76/124/32 98/114/32 97/113/35
f 79/127/36 77/125/34 90/106/34 89/105/36
f 80/128/37 78/126/35 97/113/35 96/112/37
f 82/130/38 81/129/39 88/104/39 87/103/38
f 81/129/39 79/127/36 89/105/36 88/104/39
f 83/131/40 80/128/37 96/112/37 95/111/40
f 84/132/41 82/130/38 87/103/38 100/118/41
f 85/133/42 83/131/40 95/111/40 94/110/42
f 70/120/29 84/132/41 100/118/41 71/117/29
f 86/134/43 85/133/42 94/110/42 93/109/43
o Arc_Plane.004
v 0.375000 -0.000000 1.000000
v 0.380347 -0.000000 0.918421
v -0.363237 -0.000000 0.820526
v -0.375000 -0.000000 1.000000
v 0.396296 -0.000000 0.838238
v -0.328148 -0.000000 0.644124
v 0.422575 -0.000000 0.760823
v -0.270335 -0.000000 0.473810
v 0.458734 -0.000000 0.687500
v -0.190785 -0.000000 0.312500
v 0.504154 -0.000000 0.619524
v -0.090861 -0.000000 0.162953
v 0.558058 -0.000000 0.558058
v 0.027728 -0.000000 0.027728
v 0.619524 -0.000000 0.504154
v 0.162953 0.000000 -0.090861
v 0.687500 -0.000000 0.458734
v 0.312500 0.000000 -0.190786
v 0.760823 -0.000000 0.422575
v 0.473810 0.000000 -0.270335
v 0.838239 -0.000000 0.396296
v 0.644124 0.000000 -0.328149
v 0.918422 -0.000000 0.380346
v 0.820527 0.000000 -0.363238
v 1.000001 -0.000000 0.374999
v 1.000001 0.000000 -0.375001
v 0.375000 -0.100000 1.000000
v -0.375000 -0.099997 1.000000
v -0.363237 -0.100000 0.820526
v 0.380347 -0.100000 0.918421
v -0.328148 -0.100000 0.644124
v 0.396296 -0.100000 0.838238
v -0.270335 -0.100000 0.473810
v 0.422575 -0.100000 0.760823
v -0.190785 -0.100000 0.312500
v 0.458734 -0.100000 0.687500
v -0.090861 -0.100000 0.162953
v 0.504154 -0.100000 0.619524
v 0.027728 -0.099997 0.027728
v 0.558058 -0.100000 0.558058
v 0.162953 -0.100000 -0.090861
v 0.619524 -0.100000 0.504154
v 0.312500 -0.099997 -0.190786
v 0.687500 -0.099997 0.458734
v 0.473810 -0.100000 -0.270335
v 0.760823 -0.100000 0.422575
v 0.644124 -0.100000 -0.328149
v 0.838239 -0.099997 0.396296
v 0.820527 -0.100000 -0.363238
v 0.918422 -0.100000 0.380346
v 1.000001 -0.099997 -0.375001
v 1.000001 -0.100000 0.374999
vt 0.000000 0.000000
vt 0.000000 0.000000
vt 0.000000 0.000000
vt 0.000000 0.000000
vt 0.000000 0.000000
vt 0.000000 0.000000
vt 0.000000 0.000000
vt 0.000000 0.000000
vt 0.000000 0.000000
vt 0.000000 0.000000
vt 0.000000 0.000000
vt 0.000000 0.000000
vt 0.000000 0.000000
vt 0.000000 0.000000
vt 0.000000 0.000000
vt 0.000000 0.000000
vt 0.000000 0.000000
vt 0.000000 0.000000
vt 0.000000 0.000000
vt 0.000000 0.000000
vt 0.000000 0.000000
vt 0.000000 0.000000
vt 0.000000 0.000000
vt 0.000000 0.000000
vt 0.000000 0.000000
vt 0.000000 0.000000
vt 0.000000 0.000000
vt 0.000000 0.000000
vt 0.000000 0.000000
vt 0.000000 0.000000
vt 0.000000 0.000000
vt 0.000000 0.000000
vt 0.000000 0.000000
vt 0.000000 0.000000
vt 0.000000 0.000000
vt 0.000000 0.000000
vt 0.000000 0.000000
vt 0.000000 0.000000
vt 0.000000 0.000000
vt 0.000000 0.000000
vt 0.000000 0.000000
vt 0.000000 0.000000
vt 0.000000 0.000000
vt 0.000000 0.000000
vt 0.000000 0.000000
vt 0.000000 0.000000
vt 0.000000 0.000000
vt 0.000000 0.000000
vt 0.000000 0.000000
vt 0.000000 0.000000
vt 0.000000 0.000000
vt 0.000000 0.000000
vn 0.0000 0.0000 1.0000
vn 1.0000 0.0000 0.0000
vn 0.0000 1.0000 0.0000
vn -0.0000 -1.0000 0.0000
vn -0.9979 0.0000 -0.0654
vn -0.9914 0.0000 -0.1305
vn 0.9914 0.0000 0.1305
vn 0.9979 0.0000 0.0654
vn -0.9659 0.0000 -0.2588
vn 0.9659 0.0000 0.2588
vn -0.9239 0.0000 -0.3827
vn 0.9239 0.0000 0.3827
vn -0.8660 0.0000 -0.5000
vn 0.8660 0.0000 0.5000
vn -0.7934 0.0000 -0.6088
vn 0.7934 0.0000 0.6088
vn -0.7071 0.0000 -0.7071
vn 0.7071 0.0000 0.7071
vn -0.6088 0.0000 -0.7934
vn 0.6088 0.0000 0.7934
vn -0.5000 0.0000 -0.8660
vn 0.5000 -0.0000 0.8660
vn -0.3827 0.0000 -0.9239
vn 0.3827 -0.0000 0.9239
vn -0.2588 0.0000 -0.9659
vn 0.2588 -0.0000 0.9659
vn -0.1305 0.0000 -0.9914
vn 0.1305 -0.0000 0.9914
vn -0.0654 0.0000 -0.9979
vn 0.0654 -0.0000 0.9979
usemtl None
s off
f 101/135/44 104/136/44 128/137/44 127/138/44
f 126/139/45 125/140/45 152/141/45 151/142/45
s 1
f 101/135/46 102/143/46 103/144/46 104/136/46
f 102/143/46 105/145/46 106/146/46 103/144/46
f 105/145/46 107/147/46 108/148/46 106/146/46
f 107/147/46 109/149/46 110/150/46 108/148/46
f 109/149/46 111/151/46 112/152/46 110/150/46
f 111/151/46 113/153/46 114/154/46 112/152/46
f 113/153/46 115/155/46 116/156/46 114/154/46
f 115/155/46 117/157/46 118/158/46 116/156/46
f 117/157/46 119/159/46 120/160/46 118/158/46
f 119/159/46 121/161/46 122/162/46 120/160/46
f 121/161/46 123/163/46 124/164/46 122/162/46
f 123/163/46 125/140/46 126/139/46 124/164/46
f 127/138/47 128/137/47 129/165/47 130/166/47
f 130/166/47 129/165/47 131/167/47 132/168/47
f 132/168/47 131/167/47 133/169/47 134/170/47
f 134/170/47 133/169/47 135/171/47 136/172/47
f 136/172/47 135/171/47 137/173/47 138/174/47
f 138/174/47 137/173/47 139/175/47 140/176/47
f 140/176/47 139/175/47 141/177/47 142/178/47
f 142/178/47 141/177/47 143/179/47 144/180/47
f 144/180/47 143/179/47 145/181/47 146/182/47
f 146/182/47 145/181/47 147/183/47 148/184/47
f 148/184/47 147/183/47 149/185/47 150/186/47
f 150/186/47 149/185/47 151/142/47 152/141/47
f 104/136/48 103/144/49 129/165/49 128/137/48
f 102/143/50 101/135/51 127/138/51 130/166/50
f 103/144/49 106/146/52 131/167/52 129/165/49
f 105/145/53 102/143/50 130/166/50 132/168/53
f 106/146/52 108/148/54 133/169/54 131/167/52
f 107/147/55 105/145/53 132/168/53 134/170/55
f 108/148/54 110/150/56 135/171/56 133/169/54
f 109/149/57 107/147/55 134/170/55 136/172/57
f 110/150/56 112/152/58 137/173/58 135/171/56
f 111/151/59 109/149/57 136/172/57 138/174/59
f 112/152/58 114/154/60 139/175/60 137/173/58
f 113/153/61 111/151/59 138/174/59 140/176/61
f 114/154/60 116/156/62 141/177/62 139/175/60
f 115/155/63 113/153/61 140/176/61 142/178/63
f 116/156/62 118/158/64 143/179/64 141/177/62
f 117/157/65 115/155/63 142/178/63 144/180/65
f 118/158/64 120/160/66 145/181/66 143/179/64
f 119/159/67 117/157/65 144/180/65 146/182/67
f 120/160/66 122/162/68 147/183/68 145/181/66
f 121/161/69 119/159/67 146/182/67 148/184/69
f 122/162/68 124/164/70 149/185/70 147/183/68
f 123/163/71 121/161/69 148/184/69 150/186/71
f 124/164/70 126/139/72 151/142/72 149/185/70
f 125/140/73 123/163/71 150/186/71 152/141/73
